<mxfile host="Electron" modified="2024-02-10T06:51:26.929Z" agent="Mozilla/5.0 (Windows NT 10.0; Win64; x64) AppleWebKit/537.36 (KHTML, like Gecko) draw.io/23.0.2 Chrome/120.0.6099.109 Electron/28.1.0 Safari/537.36" etag="6gvvGPcaB8i96tKL1f82" version="23.0.2" type="device">
  <diagram name="Page-1" id="iO_LVZ-w2H8U4zcboRAy">
    <mxGraphModel dx="1434" dy="854" grid="1" gridSize="10" guides="1" tooltips="1" connect="1" arrows="1" fold="1" page="1" pageScale="1" pageWidth="1200" pageHeight="1920" math="0" shadow="0">
      <root>
        <mxCell id="0" />
        <mxCell id="1" parent="0" />
        <mxCell id="WM565uvvXOydNESPgj96-19" style="edgeStyle=orthogonalEdgeStyle;rounded=0;orthogonalLoop=1;jettySize=auto;html=1;exitX=0.5;exitY=1;exitDx=0;exitDy=0;entryX=0.5;entryY=0;entryDx=0;entryDy=0;" edge="1" parent="1" source="WM565uvvXOydNESPgj96-1" target="WM565uvvXOydNESPgj96-3">
          <mxGeometry relative="1" as="geometry" />
        </mxCell>
        <mxCell id="WM565uvvXOydNESPgj96-1" value="" style="ellipse;fillColor=strokeColor;html=1;" vertex="1" parent="1">
          <mxGeometry x="535" y="190" width="30" height="30" as="geometry" />
        </mxCell>
        <mxCell id="WM565uvvXOydNESPgj96-9" style="edgeStyle=orthogonalEdgeStyle;rounded=0;orthogonalLoop=1;jettySize=auto;html=1;exitX=0.25;exitY=1;exitDx=0;exitDy=0;entryX=0.5;entryY=0;entryDx=0;entryDy=0;" edge="1" parent="1" source="WM565uvvXOydNESPgj96-3" target="WM565uvvXOydNESPgj96-4">
          <mxGeometry relative="1" as="geometry" />
        </mxCell>
        <mxCell id="WM565uvvXOydNESPgj96-10" style="edgeStyle=orthogonalEdgeStyle;rounded=0;orthogonalLoop=1;jettySize=auto;html=1;exitX=0.75;exitY=1;exitDx=0;exitDy=0;entryX=0.5;entryY=0;entryDx=0;entryDy=0;" edge="1" parent="1" source="WM565uvvXOydNESPgj96-3" target="WM565uvvXOydNESPgj96-8">
          <mxGeometry relative="1" as="geometry" />
        </mxCell>
        <mxCell id="WM565uvvXOydNESPgj96-3" value="Start page" style="rounded=0;whiteSpace=wrap;html=1;" vertex="1" parent="1">
          <mxGeometry x="490" y="260" width="120" height="60" as="geometry" />
        </mxCell>
        <mxCell id="WM565uvvXOydNESPgj96-12" style="edgeStyle=orthogonalEdgeStyle;rounded=0;orthogonalLoop=1;jettySize=auto;html=1;exitX=0.25;exitY=0;exitDx=0;exitDy=0;entryX=0.5;entryY=1;entryDx=0;entryDy=0;" edge="1" parent="1" source="WM565uvvXOydNESPgj96-4" target="WM565uvvXOydNESPgj96-21">
          <mxGeometry relative="1" as="geometry">
            <mxPoint x="400" y="320" as="targetPoint" />
          </mxGeometry>
        </mxCell>
        <mxCell id="WM565uvvXOydNESPgj96-15" style="edgeStyle=orthogonalEdgeStyle;rounded=0;orthogonalLoop=1;jettySize=auto;html=1;exitX=0;exitY=0.25;exitDx=0;exitDy=0;entryX=1;entryY=0.25;entryDx=0;entryDy=0;" edge="1" parent="1" source="WM565uvvXOydNESPgj96-4" target="WM565uvvXOydNESPgj96-5">
          <mxGeometry relative="1" as="geometry" />
        </mxCell>
        <mxCell id="WM565uvvXOydNESPgj96-4" value="Log in" style="rounded=0;whiteSpace=wrap;html=1;" vertex="1" parent="1">
          <mxGeometry x="390" y="380" width="120" height="60" as="geometry" />
        </mxCell>
        <mxCell id="WM565uvvXOydNESPgj96-16" style="edgeStyle=orthogonalEdgeStyle;rounded=0;orthogonalLoop=1;jettySize=auto;html=1;exitX=1;exitY=0.75;exitDx=0;exitDy=0;entryX=0;entryY=0.75;entryDx=0;entryDy=0;" edge="1" parent="1" source="WM565uvvXOydNESPgj96-5" target="WM565uvvXOydNESPgj96-4">
          <mxGeometry relative="1" as="geometry">
            <Array as="points">
              <mxPoint x="300" y="355" />
              <mxPoint x="330" y="355" />
              <mxPoint x="330" y="425" />
            </Array>
          </mxGeometry>
        </mxCell>
        <mxCell id="WM565uvvXOydNESPgj96-17" style="edgeStyle=orthogonalEdgeStyle;rounded=0;orthogonalLoop=1;jettySize=auto;html=1;exitX=0.5;exitY=1;exitDx=0;exitDy=0;entryX=0.5;entryY=0;entryDx=0;entryDy=0;" edge="1" parent="1" source="WM565uvvXOydNESPgj96-5" target="WM565uvvXOydNESPgj96-6">
          <mxGeometry relative="1" as="geometry" />
        </mxCell>
        <mxCell id="WM565uvvXOydNESPgj96-5" value="Reset password" style="rounded=0;whiteSpace=wrap;html=1;" vertex="1" parent="1">
          <mxGeometry x="180" y="320" width="120" height="60" as="geometry" />
        </mxCell>
        <mxCell id="WM565uvvXOydNESPgj96-14" style="edgeStyle=orthogonalEdgeStyle;rounded=0;orthogonalLoop=1;jettySize=auto;html=1;exitX=1;exitY=0.5;exitDx=0;exitDy=0;entryX=0.25;entryY=1;entryDx=0;entryDy=0;" edge="1" parent="1" source="WM565uvvXOydNESPgj96-6" target="WM565uvvXOydNESPgj96-4">
          <mxGeometry relative="1" as="geometry" />
        </mxCell>
        <mxCell id="WM565uvvXOydNESPgj96-6" value="Enter new password" style="rounded=0;whiteSpace=wrap;html=1;" vertex="1" parent="1">
          <mxGeometry x="180" y="440" width="120" height="60" as="geometry" />
        </mxCell>
        <mxCell id="WM565uvvXOydNESPgj96-20" style="edgeStyle=orthogonalEdgeStyle;rounded=0;orthogonalLoop=1;jettySize=auto;html=1;exitX=1;exitY=0.5;exitDx=0;exitDy=0;entryX=0;entryY=0.5;entryDx=0;entryDy=0;" edge="1" parent="1" source="WM565uvvXOydNESPgj96-21" target="WM565uvvXOydNESPgj96-3">
          <mxGeometry relative="1" as="geometry">
            <mxPoint x="460" y="290" as="sourcePoint" />
          </mxGeometry>
        </mxCell>
        <mxCell id="WM565uvvXOydNESPgj96-11" style="edgeStyle=orthogonalEdgeStyle;rounded=0;orthogonalLoop=1;jettySize=auto;html=1;exitX=0;exitY=0.75;exitDx=0;exitDy=0;entryX=1;entryY=0.75;entryDx=0;entryDy=0;" edge="1" parent="1" source="WM565uvvXOydNESPgj96-8" target="WM565uvvXOydNESPgj96-4">
          <mxGeometry relative="1" as="geometry">
            <Array as="points">
              <mxPoint x="560" y="415" />
              <mxPoint x="560" y="415" />
            </Array>
          </mxGeometry>
        </mxCell>
        <mxCell id="WM565uvvXOydNESPgj96-8" value="Sign up" style="rounded=0;whiteSpace=wrap;html=1;" vertex="1" parent="1">
          <mxGeometry x="600" y="370" width="120" height="60" as="geometry" />
        </mxCell>
        <mxCell id="WM565uvvXOydNESPgj96-22" style="edgeStyle=orthogonalEdgeStyle;rounded=0;orthogonalLoop=1;jettySize=auto;html=1;exitX=0;exitY=0.5;exitDx=0;exitDy=0;entryX=0.75;entryY=0;entryDx=0;entryDy=0;" edge="1" parent="1" source="WM565uvvXOydNESPgj96-21" target="WM565uvvXOydNESPgj96-5">
          <mxGeometry relative="1" as="geometry" />
        </mxCell>
        <mxCell id="WM565uvvXOydNESPgj96-21" value="Logged in&lt;br&gt;start page" style="rounded=0;whiteSpace=wrap;html=1;" vertex="1" parent="1">
          <mxGeometry x="340" y="260" width="120" height="60" as="geometry" />
        </mxCell>
      </root>
    </mxGraphModel>
  </diagram>
</mxfile>
